<svg xmlns="http://www.w3.org/2000/svg" viewBox="0 0 800 600">
  <!-- Myanmar -->
  <path d="M142,28 C148,32 155,38 160,48 C165,58 168,70 166,82 C164,94 158,106 152,118 C146,130 140,142 138,154 C136,166 138,178 142,186 C146,194 152,198 155,202 C158,206 155,210 148,212 C141,214 134,214 128,210 C122,206 118,198 114,188 C110,178 108,166 110,154 C112,142 118,130 124,118 C130,106 136,94 140,82 C144,70 146,58 145,48 C144,38 142,32 142,28Z" fill="#4A90D9" opacity="0.85"/>
  
  <!-- Thailand -->
  <path d="M190,60 C196,64 202,72 206,84 C210,96 212,110 210,124 C208,138 202,152 198,166 C194,180 192,194 196,204 C200,214 208,220 214,228 C220,236 224,246 222,252 C220,258 214,260 208,256 C202,252 196,244 192,234 C188,224 186,212 186,200 C186,188 188,176 192,164 C196,152 202,140 206,128 C210,116 212,104 210,94 C208,84 202,76 196,70 C190,64 186,60 190,60Z" fill="#98D458" opacity="0.85"/>
  
  <!-- Laos -->
  <path d="M218,48 C224,52 232,60 236,72 C240,84 240,98 236,110 C232,122 224,130 218,134 C212,138 208,138 206,134 C204,130 204,122 208,114 C212,106 218,98 222,88 C226,78 226,68 222,60 C218,52 214,48 218,48Z" fill="#5BC0BE" opacity="0.85"/>
  
  <!-- Vietnam -->
  <path d="M248,42 C252,48 258,58 262,72 C266,86 268,102 266,118 C264,134 258,150 252,164 C246,178 240,190 238,200 C236,210 238,218 244,222 C250,226 258,226 266,222 C274,218 282,210 286,200 C290,190 290,178 286,168 C282,158 274,150 268,144 C262,138 258,134 256,128 C254,122 254,114 256,106 C258,98 262,90 264,82 C266,74 264,66 260,58 C256,50 250,44 248,42Z" fill="#58C4A7" opacity="0.85"/>
  
  <!-- Cambodia -->
  <path d="M214,136 C220,138 228,142 234,150 C240,158 244,168 242,176 C240,184 234,190 226,192 C218,194 208,192 202,186 C196,180 194,170 196,162 C198,154 204,148 210,142 C214,138 214,136 214,136Z" fill="#F0D264" opacity="0.85"/>
  
  <!-- Philippines -->
  <path d="M398,72 C402,78 408,88 412,100 C416,112 418,126 416,138 C414,150 408,160 402,166 C396,172 390,174 386,170 C382,166 380,158 382,148 C384,138 390,128 394,116 C398,104 400,92 398,82 C396,76 396,72 398,72Z" fill="#6ECBA0" opacity="0.85"/>
  <path d="M420,96 C424,102 428,112 430,124 C432,136 430,148 426,158 C422,168 416,174 410,176 C404,178 400,174 400,166 C400,158 404,148 408,138 C412,128 416,118 418,108 C420,100 420,96 420,96Z" fill="#6ECBA0" opacity="0.75"/>
  <path d="M378,108 C382,114 386,122 388,132 C390,142 388,152 384,158 C380,164 374,166 370,162 C366,158 366,150 368,140 C370,130 374,120 378,112Z" fill="#6ECBA0" opacity="0.7"/>
  
  <!-- Malaysia Peninsular -->
  <path d="M200,214 C204,220 208,230 210,244 C212,258 212,274 208,286 C204,298 198,306 192,308 C186,310 180,306 178,298 C176,290 178,278 182,266 C186,254 192,242 196,232 C200,224 200,218 200,214Z" fill="#F5A623" opacity="0.85"/>
  
  <!-- Malaysia Borneo -->
  <path d="M330,230 C340,226 352,224 366,228 C380,232 394,240 404,252 C414,264 420,278 418,290 C416,302 408,310 396,312 C384,314 370,310 358,302 C346,294 338,282 334,270 C330,258 328,246 328,238 C328,232 330,230 330,230Z" fill="#F5A623" opacity="0.75"/>
  
  <!-- Singapore (tiny dot area) -->
  <circle cx="212" cy="310" r="5" fill="#FF6B9D" opacity="0.9"/>
  
  <!-- Brunei -->
  <path d="M348,230 C352,228 356,230 358,234 C360,238 358,244 354,246 C350,248 346,246 344,242 C342,238 344,232 348,230Z" fill="#D070E0" opacity="0.85"/>
  
  <!-- Indonesia - Sumatra -->
  <path d="M142,250 C148,258 156,270 164,286 C172,302 180,322 184,340 C188,358 188,374 184,388 C180,402 172,414 162,420 C152,426 140,426 132,418 C124,410 120,396 122,380 C124,364 130,346 138,330 C146,314 156,300 162,288 C168,276 168,268 162,262 C156,256 148,252 142,250Z" fill="#F78DA7" opacity="0.8"/>
  
  <!-- Indonesia - Java -->
  <path d="M238,380 C248,376 262,374 278,378 C294,382 312,390 328,394 C344,398 358,398 368,394 C378,390 384,382 386,376 C388,370 386,366 380,364 C374,362 364,362 354,366 C344,370 334,376 322,378 C310,380 296,378 282,372 C268,366 254,358 244,354 C234,350 228,350 226,354 C224,358 226,366 232,374 C236,378 238,380 238,380Z" fill="#F78DA7" opacity="0.8"/>
  
  <!-- Indonesia - Kalimantan -->
  <path d="M290,280 C298,274 310,270 324,272 C338,274 352,280 362,290 C372,300 378,314 376,326 C374,338 366,346 354,348 C342,350 328,346 316,338 C304,330 296,318 292,306 C288,294 288,284 290,280Z" fill="#F78DA7" opacity="0.75"/>
  
  <!-- Indonesia - Sulawesi -->
  <path d="M382,290 C386,286 392,284 398,288 C404,292 408,300 410,310 C412,320 410,332 406,340 C402,348 396,352 390,350 C384,348 380,340 378,330 C376,320 378,308 380,298Z" fill="#F78DA7" opacity="0.75"/>
  <path d="M394,320 C400,318 406,322 410,330 C414,338 414,348 410,354 C406,360 400,362 394,358 C388,354 386,346 388,338 C390,330 392,324 394,320Z" fill="#F78DA7" opacity="0.7"/>
  
  <!-- Indonesia - Papua -->
  <path d="M488,280 C498,276 512,278 526,286 C540,294 554,308 562,322 C570,336 572,350 566,360 C560,370 548,374 536,372 C524,370 512,362 502,350 C492,338 486,322 484,308 C482,294 484,284 488,280Z" fill="#F78DA7" opacity="0.75"/>
  
  <!-- Indonesia - small islands (Bali, NTB, NTT, Maluku) -->
  <ellipse cx="370" cy="380" rx="8" ry="5" fill="#F78DA7" opacity="0.7"/>
  <ellipse cx="390" cy="384" rx="12" ry="5" fill="#F78DA7" opacity="0.7"/>
  <ellipse cx="418" cy="388" rx="14" ry="5" fill="#F78DA7" opacity="0.65"/>
  <ellipse cx="448" cy="384" rx="10" ry="5" fill="#F78DA7" opacity="0.65"/>
  <ellipse cx="450" cy="340" rx="8" ry="12" fill="#F78DA7" opacity="0.65"/>
  <ellipse cx="468" cy="330" rx="8" ry="10" fill="#F78DA7" opacity="0.6"/>
  
  <!-- Timor Leste -->
  <path d="M432,390 C438,386 446,386 452,390 C458,394 460,400 456,404 C452,408 444,408 438,404 C432,400 430,394 432,390Z" fill="#3D4DB7" opacity="0.85"/>
  
  <!-- Text label -->
  <text x="560" y="52" font-family="Inter, sans-serif" font-size="28" font-weight="700" fill="#94a3b8" opacity="0.6">Southeast</text>
  <text x="560" y="82" font-family="Inter, sans-serif" font-size="28" font-weight="700" fill="#94a3b8" opacity="0.6">ASIA</text>
</svg>
